<svg version="1.1" id="Layer_1" xmlns="http://www.w3.org/2000/svg" xmlns:xlink="http://www.w3.org/1999/xlink" x="0px" y="0px"
	viewBox="0 0 512 512" xml:space="preserve">
<g>
	<path d="M420.709,305.744c1.122-3.723-0.067-7.756-3.033-10.27c-2.965-2.515-7.14-3.031-10.627-1.314
		c-14.457,7.113-30.021,10.722-46.264,10.722c-57.859,0-104.933-47.071-104.933-104.933c0-37.231,20.016-72.009,52.234-90.76
		c3.356-1.954,5.236-5.715,4.785-9.574c-0.45-3.859-3.146-7.084-6.864-8.212c-16.137-4.892-32.945-7.372-49.96-7.372
		c-94.824,0-171.97,77.146-171.97,171.97c0,94.825,77.146,171.97,171.97,171.97c37.683,0,73.46-11.963,103.464-34.596
		C388.53,371.484,410.265,340.366,420.709,305.744L420.709,305.744z"/>
</g>
</svg>
