<?xml version="1.0" encoding="utf-8"?>
<!-- Generator: Adobe Illustrator 25.3.1, SVG Export Plug-In . SVG Version: 6.00 Build 0)  -->
<svg version="1.1" id="Google_alt" xmlns="http://www.w3.org/2000/svg" xmlns:xlink="http://www.w3.org/1999/xlink" x="0px" y="0px"
	 viewBox="0 0 512 512" style="enable-background:new 0 0 512 512;" xml:space="preserve">
<style type="text/css">
	.st0{fill:#FFFFFF;}
</style>
<path class="st0" d="M457.7,216.6c2.6,14,4.1,28.7,4.1,44.1c0,120-80.3,205.3-201.6,205.3c-116,0-210-94-210-210s94-210,210-210
	c56.7,0,104.1,20.9,140.4,54.7l-59.2,59.2v-0.1c-22-21-50-31.8-81.2-31.8c-69.3,0-125.6,58.5-125.6,127.8c0,69.3,56.3,128,125.6,128
	c62.9,0,105.7-36,114.5-85.3H260.2v-81.9L457.7,216.6L457.7,216.6z"/>
</svg>
