<svg version="1.1" id="Layer_1" xmlns="http://www.w3.org/2000/svg" xmlns:xlink="http://www.w3.org/1999/xlink" x="0px" y="0px"
	viewBox="0 0 512 512" xml:space="preserve">
<g id="_34">
	<path d="M354.351,256.864c0-54.203-43.94-98.143-98.143-98.143c-54.203,0-98.144,43.94-98.144,98.143
		c0,54.202,43.94,98.143,98.144,98.143C310.409,355.007,354.351,311.066,354.351,256.864z M256.208,330.471
		c-40.652,0-73.607-32.953-73.607-73.606c0-40.652,32.955-73.607,73.607-73.607c40.651,0,73.606,32.955,73.606,73.607
		C329.814,297.518,296.859,330.471,256.208,330.471z"/>
	<path d="M280.743,136.884h3.435c5.48,0.084,10.324-3.548,11.777-8.833l9.323-27.235c1.896-6.775-2.058-13.806-8.834-15.703
		c-6.774-1.897-13.806,2.058-15.701,8.833l-7.361,27.726C271.396,127.894,274.631,134.581,280.743,136.884z"/>
	<path d="M231.671,376.844c-6.504-1.896-13.315,1.838-15.212,8.344l-9.324,27.726c-1.897,6.503,1.837,13.313,8.342,15.212h3.436
		c5.697,0.615,11.038-2.876,12.759-8.343l7.852-27.726C241.461,385.695,237.979,378.949,231.671,376.844z"/>
	<path d="M419.123,281.398l-27.726-7.359c-6.774-1.896-13.806,2.059-15.702,8.833s2.059,13.806,8.833,15.703l27.726,7.852h3.436
		c6.775,0.947,13.036-3.774,13.985-10.551c0.947-6.776-3.774-13.037-10.552-13.985l0,0V281.398z"/>
	<path d="M124.45,240.18c6.774,0.948,13.036-3.775,13.984-10.551c0.949-6.775-3.773-13.037-10.55-13.985l-27.726-7.852
		c-6.775-1.897-13.807,2.058-15.703,8.833c-1.897,6.775,2.058,13.806,8.833,15.703l27.726,7.852H124.45z"/>
	<path d="M405.875,164.119c-3.33-5.865-10.709-8.035-16.686-4.907l-24.535,13.985c-5.864,3.331-8.035,10.709-4.908,16.685
		c2.118,3.983,6.286,6.446,10.797,6.379c2.052-0.019,4.069-0.523,5.89-1.472l24.535-13.986
		C406.831,177.473,409.003,170.094,405.875,164.119L405.875,164.119z"/>
	<path d="M136.718,318.939l-24.536,13.984c-5.865,3.33-8.035,10.709-4.908,16.686c2.117,3.982,6.285,6.445,10.796,6.377
		c1.768,0.027,3.521-0.307,5.152-0.979l24.536-13.985c5.962-3.252,8.16-10.722,4.908-16.685c-3.253-5.962-10.724-8.159-16.685-4.907
		L136.718,318.939z"/>
	<path d="M172.541,149.152c1.989,3.755,5.813,6.18,10.06,6.379c2.055,0.01,4.08-0.496,5.888-1.472
		c5.864-3.331,8.035-10.709,4.908-16.684l-13.985-24.536c-4.262-5.268-11.986-6.083-17.254-1.821
		c-3.813,3.084-5.422,8.142-4.093,12.862L172.541,149.152z"/>
	<path d="M339.873,364.576c-3.252-5.963-10.722-8.16-16.685-4.907c-5.963,3.252-8.159,10.722-4.906,16.685l13.984,24.535
		c2.117,3.983,6.285,6.447,10.796,6.381c2.056,0.01,4.08-0.498,5.889-1.474c5.864-3.33,8.034-10.71,4.907-16.685L339.873,364.576z"
		/>
</g>
</svg>
